<svg width="106" height="105" viewBox="0 0 106 105" fill="none" xmlns="http://www.w3.org/2000/svg">
<path d="M51.9062 51.3438V68.3125C51.4062 68.9792 50.6458 69.8125 49.625 70.8125C48.625 71.8125 47.2188 72.6979 45.4062 73.4688C43.5938 74.2396 41.2188 74.625 38.2812 74.625C35.9271 74.625 33.7708 74.2292 31.8125 73.4375C29.875 72.6458 28.1979 71.4583 26.7812 69.875C25.3854 68.2708 24.3021 66.2812 23.5312 63.9062C22.7604 61.5104 22.375 58.7083 22.375 55.5V46.9688C22.375 43.7812 22.6979 40.9896 23.3438 38.5938C23.9896 36.1979 24.9479 34.2083 26.2188 32.625C27.5104 31.0417 29.1042 29.8542 31 29.0625C32.9167 28.2708 35.1458 27.875 37.6875 27.875C40.625 27.875 43.125 28.4271 45.1875 29.5312C47.25 30.6354 48.8438 32.2292 49.9688 34.3125C51.1146 36.3958 51.7604 38.8958 51.9062 41.8125H46.1562C46.0104 39.9375 45.6146 38.3333 44.9688 37C44.3229 35.6458 43.4062 34.6146 42.2188 33.9062C41.0312 33.1771 39.5208 32.8125 37.6875 32.8125C35.9375 32.8125 34.4583 33.1042 33.25 33.6875C32.0417 34.2708 31.0521 35.1458 30.2812 36.3125C29.5312 37.4792 28.9792 38.9479 28.625 40.7188C28.2917 42.4896 28.125 44.5521 28.125 46.9062V55.5C28.125 57.9167 28.3646 60.0208 28.8438 61.8125C29.3229 63.6042 30 65.0833 30.875 66.25C31.7708 67.4167 32.8438 68.2917 34.0938 68.875C35.3438 69.4375 36.75 69.7188 38.3125 69.7188C40.0833 69.7188 41.4792 69.5312 42.5 69.1562C43.5208 68.7812 44.3021 68.3542 44.8438 67.875C45.4062 67.3958 45.8542 67.0104 46.1875 66.7188V56.2188H37.8438V51.3438H51.9062ZM84.8125 69.0938V74H65.9375V69.0938H84.8125ZM66.9688 28.5V74H61.2188V28.5H66.9688Z" fill="#9661FF" fill-opacity="0.2"/>
</svg>
